<svg width="1434" height="277" viewBox="0 0 1434 277" fill="none" xmlns="http://www.w3.org/2000/svg">
<path d="M0 8.8H113.9V28.3H19.9V90.5H113.1V110H19.9V188.1H113.1V207.5H0V8.8Z" fill="white"/>
<path d="M201 185.5L200.9 185.4L201 185.5Z" fill="#00539F"/>
<path d="M131.5 60.6H151.6L200.9 185.4L201 185.5L200.9 185.4L249.7 60.6H270L211 207.4H190.9L131.5 60.6Z" fill="white"/>
<path d="M368 56.8C390.6 56.8 409.4 65 424.3 81.4C437.8 96.4 444.6 114 444.6 134.5C444.6 155 437.4 173 423.2 188.3C408.9 203.7 390.5 211.3 368.1 211.3C345.5 211.3 327.1 203.6 312.8 188.3C298.5 172.9 291.4 155 291.4 134.5C291.4 114.1 298.2 96.5 311.7 81.5C326.4 65 345.2 56.8 368 56.8ZM367.9 75.3C352.2 75.3 338.7 81.1 327.4 92.7C316.1 104.3 310.5 118.4 310.5 134.8C310.5 145.4 313.1 155.3 318.2 164.5C323.4 173.7 330.3 180.8 339.1 185.8C347.9 190.8 357.5 193.3 368 193.3C378.5 193.3 388.1 190.8 396.9 185.8C405.7 180.8 412.6 173.7 417.8 164.5C422.9 155.3 425.5 145.4 425.5 134.8C425.5 118.3 419.8 104.3 408.5 92.7C397.2 81.1 383.5 75.3 367.9 75.3Z" fill="white"/>
<path d="M495.6 3.8H476.7V207.5H495.6V3.8Z" fill="white"/>
<path d="M532.5 60.6H551.4V129.2C551.4 146 552.3 157.5 554.1 163.8C556.8 172.8 562 179.9 569.6 185.1C577.2 190.3 586.3 192.9 596.9 192.9C607.4 192.9 616.4 190.4 623.7 185.3C631.1 180.2 636.1 173.5 638.9 165.2C640.8 159.5 641.7 147.5 641.7 129.1V60.5H661V132.6C661 152.9 658.6 168.1 653.9 178.4C649.2 188.7 642.1 196.7 632.6 202.5C623.1 208.3 611.2 211.2 596.9 211.2C582.6 211.2 570.6 208.3 561 202.5C551.4 196.7 544.2 188.6 539.5 178.2C534.8 167.8 532.4 152.2 532.4 131.3V60.6H532.5Z" fill="white"/>
<path d="M845.8 91.1L830.8 100.4C817.8 83.2 800.2 74.6 777.8 74.6C759.9 74.6 745 80.4 733.2 91.9C721.4 103.4 715.5 117.4 715.5 133.9C715.5 144.6 718.2 154.7 723.7 164.1C729.1 173.5 736.6 180.9 746.1 186.1C755.6 191.3 766.2 193.9 778 193.9C799.6 193.9 817.2 185.3 830.9 168.1L845.9 178C838.9 188.6 829.4 196.8 817.6 202.6C805.8 208.4 792.3 211.4 777.1 211.4C753.9 211.4 734.6 204 719.3 189.2C704 174.4 696.3 156.5 696.3 135.3C696.3 121.1 699.9 107.9 707 95.7C714.2 83.5 724 74 736.5 67.1C749 60.3 763 56.8 778.5 56.8C788.2 56.8 797.6 58.3 806.7 61.3C815.7 64.3 823.4 68.1 829.7 72.9C836 77.6 841.3 83.7 845.8 91.1Z" fill="white"/>
<path d="M888.6 0C892.9 0 896.6 1.50001 899.6 4.60001C902.6 7.70001 904.2 11.4 904.2 15.7C904.2 19.9 902.7 23.6 899.6 26.6C896.6 29.7 892.9 31.2 888.6 31.2C884.4 31.2 880.8 29.7 877.7 26.6C874.7 23.5 873.1 19.9 873.1 15.7C873.1 11.4 874.6 7.70001 877.7 4.60001C880.8 1.60001 884.4 0 888.6 0ZM879.3 60.6H898.2V207.6H879.3V60.6Z" fill="white"/>
<path d="M1007 56.8C1029.6 56.8 1048.4 65 1063.3 81.4C1076.8 96.4 1083.6 114 1083.6 134.5C1083.6 155 1076.4 173 1062.2 188.3C1047.9 203.7 1029.5 211.3 1007.1 211.3C984.5 211.3 966.1 203.6 951.8 188.3C937.5 172.9 930.3 155 930.3 134.5C930.3 114.1 937.1 96.5 950.6 81.5C965.5 65 984.3 56.8 1007 56.8ZM1007 75.3C991.3 75.3 977.8 81.1 966.5 92.7C955.2 104.3 949.6 118.4 949.6 134.8C949.6 145.4 952.2 155.3 957.3 164.5C962.5 173.7 969.4 180.8 978.2 185.8C987 190.8 996.6 193.3 1007.1 193.3C1017.6 193.3 1027.2 190.8 1036 185.8C1044.8 180.8 1051.7 173.7 1056.9 164.5C1062 155.3 1064.6 145.4 1064.6 134.8C1064.6 118.3 1058.9 104.3 1047.6 92.7C1036.3 81.1 1022.6 75.3 1007 75.3Z" fill="white"/>
<path d="M1118.6 60.6H1137.5V86.9C1145.1 76.8 1153.4 69.3 1162.6 64.3C1171.8 59.3 1181.8 56.8 1192.6 56.8C1203.6 56.8 1213.3 59.6 1221.8 65.2C1230.3 70.8 1236.6 78.3 1240.6 87.8C1244.7 97.3 1246.7 112 1246.7 132V207.6H1227.8V137.5C1227.8 120.6 1227.1 109.3 1225.7 103.6C1223.5 93.9 1219.3 86.6 1213.1 81.7C1206.9 76.8 1198.8 74.3 1188.8 74.3C1177.4 74.3 1167.1 78.1 1158.1 85.6C1149 93.2 1143.1 102.5 1140.2 113.7C1138.4 121 1137.5 134.3 1137.5 153.7V207.6H1118.6V60.6Z" fill="white"/>
<path d="M1433.8 60.6V207.6H1415.2V182.3C1407.3 191.9 1398.4 199.2 1388.5 204C1378.6 208.9 1367.9 211.3 1356.1 211.3C1335.3 211.3 1317.5 203.8 1302.8 188.7C1288.1 173.6 1280.7 155.3 1280.7 133.7C1280.7 112.5 1288.1 94.4 1303 79.4C1317.9 64.4 1335.7 56.8 1356.6 56.8C1368.7 56.8 1379.6 59.4 1389.4 64.5C1399.2 69.6 1407.7 77.3 1415.1 87.6V60.6H1433.8ZM1358.2 75C1347.7 75 1338 77.6 1329.1 82.8C1320.2 88 1313.1 95.2 1307.8 104.6C1302.5 114 1299.9 123.8 1299.9 134.3C1299.9 144.6 1302.6 154.5 1307.9 164C1313.2 173.4 1320.3 180.8 1329.3 186.1C1338.3 191.4 1347.9 194 1358.1 194C1368.4 194 1378.2 191.4 1387.5 186.2C1396.8 181 1403.9 173.9 1408.9 165C1413.9 156.1 1416.4 146.1 1416.4 134.9C1416.4 117.9 1410.8 103.7 1399.6 92.3C1388.4 80.7 1374.6 75 1358.2 75Z" fill="white"/>
<path d="M1225.8 245.6C1230.1 245.6 1233.8 247.1 1236.8 250.2C1239.8 253.3 1241.4 257 1241.4 261.3C1241.4 265.5 1239.9 269.2 1236.8 272.2C1233.8 275.3 1230.1 276.8 1225.8 276.8C1221.6 276.8 1218 275.3 1214.9 272.2C1211.9 269.1 1210.3 265.5 1210.3 261.3C1210.3 257 1211.8 253.3 1214.9 250.2C1217.9 247.2 1221.6 245.6 1225.8 245.6Z" fill="#EE7F00"/>
<path d="M1312.2 245.6C1316.5 245.6 1320.2 247.1 1323.2 250.2C1326.2 253.3 1327.8 257 1327.8 261.3C1327.8 265.5 1326.3 269.2 1323.2 272.2C1320.2 275.3 1316.5 276.8 1312.2 276.8C1308 276.8 1304.4 275.3 1301.3 272.2C1298.3 269.1 1296.7 265.5 1296.7 261.3C1296.7 257 1298.2 253.3 1301.3 250.2C1304.3 247.2 1307.9 245.6 1312.2 245.6Z" fill="#E53527"/>
<path d="M1395.9 245.6C1400.2 245.6 1403.9 247.1 1406.9 250.2C1409.9 253.3 1411.5 256.9 1411.5 261.3C1411.5 265.5 1410 269.2 1406.9 272.2C1403.9 275.3 1400.2 276.8 1395.9 276.8C1391.7 276.8 1388.1 275.3 1385 272.2C1382 269.1 1380.4 265.5 1380.4 261.3C1380.4 257 1381.9 253.3 1385 250.2C1388.1 247.2 1391.7 245.6 1395.9 245.6Z" fill="#D4007A"/>
<path d="M1055.9 245.6C1060.2 245.6 1063.9 247.1 1066.9 250.2C1069.9 253.3 1071.5 257 1071.5 261.3C1071.5 265.5 1070 269.2 1066.9 272.2C1063.9 275.3 1060.2 276.8 1055.9 276.8C1051.7 276.8 1048.1 275.3 1045 272.2C1042 269.1 1040.4 265.5 1040.4 261.3C1040.4 257 1041.9 253.3 1045 250.2C1048.1 247.2 1051.7 245.6 1055.9 245.6Z" fill="#89BA17"/>
<path d="M1142.3 245.6C1146.6 245.6 1150.3 247.1 1153.3 250.2C1156.4 253.3 1157.9 257 1157.9 261.3C1157.9 265.5 1156.4 269.2 1153.3 272.2C1150.3 275.3 1146.6 276.8 1142.3 276.8C1138.1 276.8 1134.5 275.3 1131.4 272.2C1128.4 269.1 1126.8 265.5 1126.8 261.3C1126.8 257 1128.3 253.3 1131.4 250.2C1134.4 247.2 1138.1 245.6 1142.3 245.6Z" fill="#F4AF00"/>
<path d="M970.8 245.6C975.1 245.6 978.8 247.1 981.8 250.2C984.9 253.3 986.4 257 986.4 261.3C986.4 265.5 984.9 269.2 981.8 272.2C978.8 275.3 975.1 276.8 970.8 276.8C966.6 276.8 963 275.3 959.9 272.2C956.9 269.1 955.3 265.5 955.3 261.3C955.3 257 956.8 253.3 959.9 250.2C962.9 247.2 966.6 245.6 970.8 245.6Z" fill="#00A7E3"/>
</svg>
